# xmcd CD database file
# Copyright (C) 1997 Ti Kan
# 
# Track frame offsets:
#     150
#     15767
#     31485
#     50705
#     58260
#     75070
#     89232
#     105632
#     130745
#     139945
#     152250
#     171520
#     187045
#     199192
#     218925
# 
# Disc length: 3111 seconds
# 
# Revision: 1
# Processed by: cddbd v1.4b41PL1 Copyright (c) Steve Scherf et al.
# Submitted via: DiscPlay 4.0.3
# 
DISCID=ce0c250f
DTITLE=Mo Bues - for the road
DYEAR=1900
DGENRE=
TTITLE0=Belly Blues
TTITLE1=Don't make your move too soon
TTITLE2=Between my baby and mee
TTITLE3=My kind of woman
TTITLE4=Mr. Jones
TTITLE5=Just Like the Sunlight
TTITLE6=Sticky rain
TTITLE7=67 Days
TTITLE8=Molly's Jive
TTITLE9=I Got Stung
TTITLE10=That's when I Sing
TTITLE11=You Won't See Me No More
TTITLE12=Flower Child
TTITLE13=I Can't Find It Here No More
TTITLE14=Funny Feeling
EXTD=
EXTT0=
EXTT1=
EXTT2=
EXTT3=
EXTT4=
EXTT5=
EXTT6=
EXTT7=
EXTT8=
EXTT9=
EXTT10=
EXTT11=
EXTT12=
EXTT13=
EXTT14=
PLAYORDER=
